<svg width="151" height="151" viewBox="0 0 151 151" fill="none" xmlns="http://www.w3.org/2000/svg">
<g clip-path="url(#clip0)">
<mask id="mask0" style="mask-type:alpha" maskUnits="userSpaceOnUse" x="0" y="0" width="152" height="151">
<path d="M151.54 75.5C151.54 117.197 117.737 151 76.04 151C34.3426 151 0.540039 117.197 0.540039 75.5C0.540039 33.8026 34.3426 0 76.04 0C117.737 0 151.54 33.8026 151.54 75.5Z" fill="#E0E0E0"/>
</mask>
<g mask="url(#mask0)">
<path d="M151.54 75.5C151.54 117.197 117.737 151 76.0396 151C34.3422 151 0.539551 117.197 0.539551 75.5C0.539551 33.8026 34.3422 0 76.0396 0C117.737 0 151.54 33.8026 151.54 75.5Z" fill="#E8EEFF"/>
<path d="M145.248 53.6589C147.035 53.6589 148.484 52.2102 148.484 50.4232C148.484 48.6362 147.035 47.1875 145.248 47.1875C143.461 47.1875 142.012 48.6362 142.012 50.4232C142.012 52.2102 143.461 53.6589 145.248 53.6589Z" fill="#BACAF0"/>
<path d="M145.248 83.8586C147.035 83.8586 148.484 82.41 148.484 80.6229C148.484 78.8359 147.035 77.3872 145.248 77.3872C143.461 77.3872 142.012 78.8359 142.012 80.6229C142.012 82.41 143.461 83.8586 145.248 83.8586Z" fill="#BACAF0"/>
<path d="M145.248 68.759C147.035 68.759 148.484 67.3103 148.484 65.5233C148.484 63.7363 147.035 62.2876 145.248 62.2876C143.461 62.2876 142.012 63.7363 142.012 65.5233C142.012 67.3103 143.461 68.759 145.248 68.759Z" fill="#ECAE00"/>
<path d="M110.734 53.6589C112.521 53.6589 113.969 52.2102 113.969 50.4232C113.969 48.6362 112.521 47.1875 110.734 47.1875C108.947 47.1875 107.498 48.6362 107.498 50.4232C107.498 52.2102 108.947 53.6589 110.734 53.6589Z" fill="#BACAF0"/>
<path d="M110.734 83.8586C112.521 83.8586 113.969 82.41 113.969 80.6229C113.969 78.8359 112.521 77.3872 110.734 77.3872C108.947 77.3872 107.498 78.8359 107.498 80.6229C107.498 82.41 108.947 83.8586 110.734 83.8586Z" fill="#EC0000"/>
<path d="M110.734 68.759C112.521 68.759 113.969 67.3103 113.969 65.5233C113.969 63.7363 112.521 62.2876 110.734 62.2876C108.947 62.2876 107.498 63.7363 107.498 65.5233C107.498 67.3103 108.947 68.759 110.734 68.759Z" fill="#BACAF0"/>
<path d="M127.991 53.6589C129.778 53.6589 131.226 52.2102 131.226 50.4232C131.226 48.6362 129.778 47.1875 127.991 47.1875C126.204 47.1875 124.755 48.6362 124.755 50.4232C124.755 52.2102 126.204 53.6589 127.991 53.6589Z" fill="#BACAF0"/>
<path d="M127.991 83.8586C129.778 83.8586 131.226 82.41 131.226 80.6229C131.226 78.8359 129.778 77.3872 127.991 77.3872C126.204 77.3872 124.755 78.8359 124.755 80.6229C124.755 82.41 126.204 83.8586 127.991 83.8586Z" fill="#BACAF0"/>
<path d="M127.991 68.759C129.778 68.759 131.226 67.3103 131.226 65.5233C131.226 63.7363 129.778 62.2876 127.991 62.2876C126.204 62.2876 124.755 63.7363 124.755 65.5233C124.755 67.3103 126.204 68.759 127.991 68.759Z" fill="#BACAF0"/>
<path d="M0.000976562 86.2901L35.5242 40.7941C40.3943 34.5568 49.1397 32.9087 55.9457 36.9455L105.039 66.0627L116.937 127.844C117.594 131.256 115.36 134.555 111.948 135.212L19.2663 153.06C15.8542 153.717 12.5555 151.484 11.8984 148.072L0.000976562 86.2901Z" fill="#0023FF"/>
<path d="M68.4189 46.9302L66.0967 28.1987L84.0286 44.9952L68.4189 46.9302Z" fill="#C1C5CE"/>
<path d="M20.0416 40.2481C19.6141 36.7997 22.063 33.6576 25.5114 33.2301L66.0966 28.1987L68.2254 45.3692C68.332 46.2315 69.1175 46.8437 69.9798 46.7367L84.0285 44.9952L90.9949 101.19C91.4224 104.638 88.9734 107.78 85.5253 108.208L35.5741 114.4C32.1257 114.828 28.9837 112.379 28.5562 108.93L20.0416 40.2481Z" fill="#F2F2F2"/>
<path d="M69.5933 56.2367L34.5812 60.4583C33.0839 60.6388 32.0165 61.999 32.197 63.4963C32.3775 64.9936 33.7377 66.061 35.235 65.8805L70.2471 61.6589C71.7444 61.4784 72.8119 60.1182 72.6314 58.6209C72.4508 57.1236 71.0907 56.0561 69.5933 56.2367Z" fill="#E6E6E6"/>
<path d="M35.8355 74.4636L57.6705 71.8406C59.1779 71.6595 60.5467 72.7347 60.7278 74.2421C60.9089 75.7495 59.8337 77.1182 58.3263 77.2993L36.4912 79.9223C34.9838 80.1034 33.6151 79.0282 33.434 77.5208C33.2529 76.0134 34.3281 74.6446 35.8355 74.4636Z" fill="#BABDC4"/>
<path d="M68.5024 22.0361L18.5515 28.2286C15.3617 28.624 13.0964 31.5304 13.4919 34.7202L22.0065 103.403C22.402 106.592 25.3083 108.858 28.4981 108.462L78.4491 102.27C81.6388 101.874 83.9041 98.968 83.5086 95.7782L74.994 27.0957C74.5986 23.9059 71.6922 21.6407 68.5024 22.0361Z" stroke="white" stroke-width="0.3"/>
<path d="M0 86.2899L56.5495 102.868C58.5629 103.458 60.7376 103.006 62.3489 101.663L105.038 66.0625L116.936 127.844C117.593 131.256 115.359 134.555 111.947 135.212L19.2653 153.06C15.8532 153.717 12.5545 151.484 11.8974 148.072L0 86.2899Z" fill="#3D58FF"/>
<path fill-rule="evenodd" clip-rule="evenodd" d="M60.6089 102.691C61.2324 102.447 61.821 102.103 62.3489 101.663L105.038 66.0625L116.936 127.844C117.261 129.531 116.879 131.19 115.998 132.516L60.6089 102.691ZM15.3688 152.562C13.6276 151.73 12.2903 150.112 11.8974 148.072L0 86.2899L56.5495 102.868C57.3649 103.107 58.2071 103.175 59.0272 103.082L15.3688 152.562Z" fill="#6A84FF"/>
</g>
</g>
<defs>
<clipPath id="clip0">
<rect width="151" height="151" fill="white"/>
</clipPath>
</defs>
</svg>
