<svg width="151" height="151" viewBox="0 0 151 151" fill="none" xmlns="http://www.w3.org/2000/svg">
<mask id="mask0" style="mask-type:alpha" maskUnits="userSpaceOnUse" x="0" y="0" width="151" height="151">
<path d="M151 75.5C151 117.197 117.197 151 75.5 151C33.8026 151 0 117.197 0 75.5C0 33.8026 33.8026 0 75.5 0C117.197 0 151 33.8026 151 75.5Z" fill="#E8EFFF"/>
</mask>
<g mask="url(#mask0)">
<path d="M151 75.5C151 117.197 117.197 151 75.5 151C33.8026 151 0 117.197 0 75.5C0 33.8026 33.8026 0 75.5 0C117.197 0 151 33.8026 151 75.5Z" fill="#F2F6FF"/>
<path d="M37.7497 47.1876C36.0123 47.1876 34.6038 48.596 34.6038 50.3334C34.6038 52.0708 36.0123 53.4792 37.7497 53.4792C39.4871 53.4792 40.8955 52.0708 40.8955 50.3334C40.8955 48.596 39.4871 47.1876 37.7497 47.1876Z" fill="#C6D4F2"/>
<path d="M37.7497 62.9166C36.0123 62.9166 34.6038 64.325 34.6038 66.0624C34.6038 67.7998 36.0123 69.2083 37.7497 69.2083C39.4871 69.2083 40.8955 67.7998 40.8955 66.0624C40.8955 64.325 39.4871 62.9166 37.7497 62.9166Z" fill="#C6D4F2"/>
<path d="M37.7497 78.6458C36.0123 78.6458 34.6038 80.0543 34.6038 81.7917C34.6038 83.5291 36.0123 84.9375 37.7497 84.9375C39.4871 84.9375 40.8955 83.5291 40.8955 81.7917C40.8955 80.0543 39.4871 78.6458 37.7497 78.6458Z" fill="#F2BC19"/>
<path d="M37.7497 31.4583C36.0123 31.4583 34.6038 32.8668 34.6038 34.6042C34.6038 36.3416 36.0123 37.75 37.7497 37.75C39.4871 37.75 40.8955 36.3416 40.8955 34.6042C40.8955 32.8668 39.4871 31.4583 37.7497 31.4583Z" fill="#C6D4F2"/>
<path d="M25.1667 62.9166C23.4293 62.9166 22.0208 64.325 22.0208 66.0624C22.0208 67.7998 23.4293 69.2083 25.1667 69.2083C26.9041 69.2083 28.3125 67.7998 28.3125 66.0624C28.3125 64.325 26.9041 62.9166 25.1667 62.9166Z" fill="#C6D4F2"/>
<path d="M25.1667 78.6458C23.4293 78.6458 22.0208 80.0543 22.0208 81.7917C22.0208 83.5291 23.4293 84.9375 25.1667 84.9375C26.9041 84.9375 28.3125 83.5291 28.3125 81.7917C28.3125 80.0543 26.9041 78.6458 25.1667 78.6458Z" fill="#C6D4F2"/>
<path d="M25.1667 31.4583C23.4293 31.4583 22.0208 32.8668 22.0208 34.6042C22.0208 36.3416 23.4293 37.75 25.1667 37.75C26.9041 37.75 28.3125 36.3416 28.3125 34.6042C28.3125 32.8668 26.9041 31.4583 25.1667 31.4583Z" fill="#FD2323"/>
<path d="M25.1667 47.1876C23.4293 47.1876 22.0208 48.596 22.0208 50.3334C22.0208 52.0708 23.4293 53.4792 25.1667 53.4792C26.9041 53.4792 28.3125 52.0708 28.3125 50.3334C28.3125 48.596 26.9041 47.1876 25.1667 47.1876Z" fill="#C6D4F2"/>
<path d="M12.5832 47.1876C10.8458 47.1876 9.43734 48.596 9.43734 50.3334C9.43734 52.0708 10.8458 53.4792 12.5832 53.4792C14.3206 53.4792 15.729 52.0708 15.729 50.3334C15.729 48.596 14.3206 47.1876 12.5832 47.1876Z" fill="#C6D4F2"/>
<path d="M12.5832 62.9166C10.8458 62.9166 9.43734 64.325 9.43734 66.0624C9.43734 67.7998 10.8458 69.2083 12.5832 69.2083C14.3206 69.2083 15.729 67.7998 15.729 66.0624C15.729 64.325 14.3206 62.9166 12.5832 62.9166Z" fill="#021D96"/>
<path d="M12.5832 78.6458C10.8458 78.6458 9.43734 80.0543 9.43734 81.7917C9.43734 83.5291 10.8458 84.9375 12.5832 84.9375C14.3206 84.9375 15.729 83.5291 15.729 81.7917C15.729 80.0543 14.3206 78.6458 12.5832 78.6458Z" fill="#C6D4F2"/>
<path d="M12.5832 31.4583C10.8458 31.4583 9.43734 32.8668 9.43734 34.6042C9.43734 36.3416 10.8458 37.75 12.5832 37.75C14.3206 37.75 15.729 36.3416 15.729 34.6042C15.729 32.8668 14.3206 31.4583 12.5832 31.4583Z" fill="#C6D4F2"/>
<path d="M-0.00032568 47.1876C-1.73772 47.1876 -3.14616 48.596 -3.14616 50.3334C-3.14616 52.0708 -1.73772 53.4792 -0.00032568 53.4792C1.73707 53.4792 3.14551 52.0708 3.14551 50.3334C3.14551 48.596 1.73707 47.1876 -0.00032568 47.1876Z" fill="#C6D4F2"/>
<path d="M-0.00032568 62.9166C-1.73772 62.9166 -3.14616 64.325 -3.14616 66.0624C-3.14616 67.7998 -1.73772 69.2083 -0.00032568 69.2083C1.73707 69.2083 3.14551 67.7998 3.14551 66.0624C3.14551 64.325 1.73707 62.9166 -0.00032568 62.9166Z" fill="#C6D4F2"/>
<path d="M-0.00032568 78.6458C-1.73772 78.6458 -3.14616 80.0543 -3.14616 81.7917C-3.14616 83.5291 -1.73772 84.9375 -0.00032568 84.9375C1.73707 84.9375 3.14551 83.5291 3.14551 81.7917C3.14551 80.0543 1.73707 78.6458 -0.00032568 78.6458Z" fill="#C6D4F2"/>
<path d="M-0.00032568 31.4583C-1.73772 31.4583 -3.14616 32.8668 -3.14616 34.6042C-3.14616 36.3416 -1.73772 37.75 -0.00032568 37.75C1.73707 37.75 3.14551 36.3416 3.14551 34.6042C3.14551 32.8668 1.73707 31.4583 -0.00032568 31.4583Z" fill="#48C5A1"/>
<circle cx="99.0938" cy="99.0938" r="51.9062" fill="#506FFF"/>
<path d="M124.26 116.396L111.677 106.958C110.796 106.298 110.261 106.683 110.104 106.958C108.531 109.056 105.071 113.25 103.812 113.25C102.239 113.25 99.0936 111.677 95.9478 108.531C93.4311 106.015 88.6075 98.0451 86.5103 94.375C85.9859 92.8021 85.5665 89.3417 88.0832 88.0833C90.5998 86.825 91.229 85.4618 91.229 84.9375C90.7047 79.6944 89.6561 68.8938 89.6561 67.6354C89.6561 66.0625 83.3644 66.0625 81.7915 66.0625C80.2186 66.0625 78.6457 67.6354 77.0728 69.2083C75.4998 70.7812 72.354 75.5 72.354 80.2188C72.354 84.9375 72.354 91.2292 75.4998 97.5208C78.6457 103.812 83.3644 111.677 91.229 119.542C97.5207 125.833 103.288 128.455 105.385 128.979C108.007 129.503 114.508 129.608 119.542 125.833C124.575 122.058 124.785 117.969 124.26 116.396Z" fill="#E5E5E5"/>
<path d="M103.813 25.1668C103.34 25.1652 102.872 25.2726 102.446 25.4808C102.02 25.6891 101.646 25.9928 101.354 26.3687C101.053 26.7538 100.842 27.2032 100.739 27.6826C100.636 28.1621 100.643 28.659 100.758 29.1354C105.034 47.2079 105.034 66.0422 100.759 84.1147C100.643 84.5911 100.636 85.0879 100.739 85.5672C100.842 86.0466 101.052 86.4959 101.353 86.8809L101.354 86.8812C101.646 87.2572 102.02 87.5609 102.446 87.7692C102.872 87.9776 103.339 88.085 103.813 88.0834H148.851C149.598 88.0836 150.32 87.8164 150.89 87.3292C151.46 86.842 151.84 86.1665 151.962 85.4229C154.874 66.3368 154.874 46.9133 151.962 27.8272C151.84 27.0837 151.46 26.4082 150.89 25.921C150.32 25.4338 149.598 25.1665 148.851 25.1667L103.813 25.1668Z" fill="white"/>
<path d="M139.064 28.3125H115.748C115.086 28.3118 114.451 28.0483 113.983 27.58C113.514 27.1116 113.251 26.4767 113.25 25.8143V21.3732C113.251 20.7108 113.514 20.0759 113.983 19.6075C114.451 19.1392 115.086 18.8757 115.748 18.875H139.064C139.727 18.8757 140.362 19.1392 140.83 19.6075C141.298 20.0759 141.562 20.7108 141.562 21.3732V25.8143C141.562 26.4767 141.298 27.1116 140.83 27.58C140.362 28.0483 139.727 28.3118 139.064 28.3125Z" fill="#CCCCCC"/>
<path d="M127.406 72.3542C135.225 72.3542 141.562 66.0163 141.562 58.198C141.562 50.3797 135.225 44.0417 127.406 44.0417C119.588 44.0417 113.25 50.3797 113.25 58.198C113.25 66.0163 119.588 72.3542 127.406 72.3542Z" fill="#F9F9F9"/>
<path d="M133.585 56.5126H129.091V52.0185C129.091 51.5716 128.914 51.1429 128.598 50.8269C128.282 50.5108 127.853 50.3333 127.406 50.3333C126.959 50.3333 126.53 50.5108 126.214 50.8269C125.898 51.1429 125.721 51.5716 125.721 52.0185V56.5126H121.227C120.78 56.5126 120.351 56.6901 120.035 57.0062C119.719 57.3222 119.542 57.7509 119.542 58.1978C119.542 58.6448 119.719 59.0734 120.035 59.3895C120.351 59.7055 120.78 59.8831 121.227 59.8831H125.721V64.3771C125.721 64.8241 125.898 65.2528 126.214 65.5688C126.53 65.8849 126.959 66.0624 127.406 66.0624C127.853 66.0624 128.282 65.8849 128.598 65.5688C128.914 65.2528 129.091 64.8241 129.091 64.3771V59.8831H133.585C134.032 59.8831 134.461 59.7055 134.777 59.3895C135.093 59.0734 135.271 58.6448 135.271 58.1978C135.271 57.7509 135.093 57.3222 134.777 57.0062C134.461 56.6901 134.032 56.5126 133.585 56.5126Z" fill="#D2D2D2"/>
</g>
</svg>
