<svg width="151" height="151" viewBox="0 0 151 151" fill="none" xmlns="http://www.w3.org/2000/svg">
<mask id="mask0" style="mask-type:alpha" maskUnits="userSpaceOnUse" x="0" y="0" width="151" height="151">
<path d="M151 75.5C151 117.197 117.197 151 75.5 151C33.8026 151 0 117.197 0 75.5C0 33.8026 33.8026 0 75.5 0C117.197 0 151 33.8026 151 75.5Z" fill="#E8EFFF"/>
</mask>
<g mask="url(#mask0)">
<path d="M151 75.5C151 117.197 117.197 151 75.5 151C33.8026 151 0 117.197 0 75.5C0 33.8026 33.8026 0 75.5 0C117.197 0 151 33.8026 151 75.5Z" fill="#F2F6FF"/>
<path d="M37.7497 47.1876C36.0123 47.1876 34.6038 48.596 34.6038 50.3334C34.6038 52.0708 36.0123 53.4792 37.7497 53.4792C39.4871 53.4792 40.8955 52.0708 40.8955 50.3334C40.8955 48.596 39.4871 47.1876 37.7497 47.1876Z" fill="#C6D4F2"/>
<path d="M37.7497 62.9166C36.0123 62.9166 34.6038 64.325 34.6038 66.0624C34.6038 67.7998 36.0123 69.2083 37.7497 69.2083C39.4871 69.2083 40.8955 67.7998 40.8955 66.0624C40.8955 64.325 39.4871 62.9166 37.7497 62.9166Z" fill="#C6D4F2"/>
<path d="M37.7497 78.6458C36.0123 78.6458 34.6038 80.0543 34.6038 81.7917C34.6038 83.5291 36.0123 84.9375 37.7497 84.9375C39.4871 84.9375 40.8955 83.5291 40.8955 81.7917C40.8955 80.0543 39.4871 78.6458 37.7497 78.6458Z" fill="#F2BC19"/>
<path d="M37.7497 31.4583C36.0123 31.4583 34.6038 32.8668 34.6038 34.6042C34.6038 36.3416 36.0123 37.75 37.7497 37.75C39.4871 37.75 40.8955 36.3416 40.8955 34.6042C40.8955 32.8668 39.4871 31.4583 37.7497 31.4583Z" fill="#C6D4F2"/>
<path d="M25.1667 62.9166C23.4293 62.9166 22.0208 64.325 22.0208 66.0624C22.0208 67.7998 23.4293 69.2083 25.1667 69.2083C26.9041 69.2083 28.3125 67.7998 28.3125 66.0624C28.3125 64.325 26.9041 62.9166 25.1667 62.9166Z" fill="#C6D4F2"/>
<path d="M25.1667 78.6458C23.4293 78.6458 22.0208 80.0543 22.0208 81.7917C22.0208 83.5291 23.4293 84.9375 25.1667 84.9375C26.9041 84.9375 28.3125 83.5291 28.3125 81.7917C28.3125 80.0543 26.9041 78.6458 25.1667 78.6458Z" fill="#C6D4F2"/>
<path d="M25.1667 31.4583C23.4293 31.4583 22.0208 32.8668 22.0208 34.6042C22.0208 36.3416 23.4293 37.75 25.1667 37.75C26.9041 37.75 28.3125 36.3416 28.3125 34.6042C28.3125 32.8668 26.9041 31.4583 25.1667 31.4583Z" fill="#FD2323"/>
<path d="M25.1667 47.1876C23.4293 47.1876 22.0208 48.596 22.0208 50.3334C22.0208 52.0708 23.4293 53.4792 25.1667 53.4792C26.9041 53.4792 28.3125 52.0708 28.3125 50.3334C28.3125 48.596 26.9041 47.1876 25.1667 47.1876Z" fill="#C6D4F2"/>
<path d="M12.5832 47.1876C10.8458 47.1876 9.43734 48.596 9.43734 50.3334C9.43734 52.0708 10.8458 53.4792 12.5832 53.4792C14.3206 53.4792 15.729 52.0708 15.729 50.3334C15.729 48.596 14.3206 47.1876 12.5832 47.1876Z" fill="#C6D4F2"/>
<path d="M12.5832 62.9166C10.8458 62.9166 9.43734 64.325 9.43734 66.0624C9.43734 67.7998 10.8458 69.2083 12.5832 69.2083C14.3206 69.2083 15.729 67.7998 15.729 66.0624C15.729 64.325 14.3206 62.9166 12.5832 62.9166Z" fill="#021D96"/>
<path d="M12.5832 78.6458C10.8458 78.6458 9.43734 80.0543 9.43734 81.7917C9.43734 83.5291 10.8458 84.9375 12.5832 84.9375C14.3206 84.9375 15.729 83.5291 15.729 81.7917C15.729 80.0543 14.3206 78.6458 12.5832 78.6458Z" fill="#C6D4F2"/>
<path d="M12.5832 31.4583C10.8458 31.4583 9.43734 32.8668 9.43734 34.6042C9.43734 36.3416 10.8458 37.75 12.5832 37.75C14.3206 37.75 15.729 36.3416 15.729 34.6042C15.729 32.8668 14.3206 31.4583 12.5832 31.4583Z" fill="#C6D4F2"/>
<path d="M-0.00032568 47.1876C-1.73772 47.1876 -3.14616 48.596 -3.14616 50.3334C-3.14616 52.0708 -1.73772 53.4792 -0.00032568 53.4792C1.73707 53.4792 3.14551 52.0708 3.14551 50.3334C3.14551 48.596 1.73707 47.1876 -0.00032568 47.1876Z" fill="#C6D4F2"/>
<path d="M-0.00032568 62.9166C-1.73772 62.9166 -3.14616 64.325 -3.14616 66.0624C-3.14616 67.7998 -1.73772 69.2083 -0.00032568 69.2083C1.73707 69.2083 3.14551 67.7998 3.14551 66.0624C3.14551 64.325 1.73707 62.9166 -0.00032568 62.9166Z" fill="#C6D4F2"/>
<path d="M-0.00032568 78.6458C-1.73772 78.6458 -3.14616 80.0543 -3.14616 81.7917C-3.14616 83.5291 -1.73772 84.9375 -0.00032568 84.9375C1.73707 84.9375 3.14551 83.5291 3.14551 81.7917C3.14551 80.0543 1.73707 78.6458 -0.00032568 78.6458Z" fill="#C6D4F2"/>
<path d="M-0.00032568 31.4583C-1.73772 31.4583 -3.14616 32.8668 -3.14616 34.6042C-3.14616 36.3416 -1.73772 37.75 -0.00032568 37.75C1.73707 37.75 3.14551 36.3416 3.14551 34.6042C3.14551 32.8668 1.73707 31.4583 -0.00032568 31.4583Z" fill="#48C5A1"/>
<path fill-rule="evenodd" clip-rule="evenodd" d="M82.1437 143.567C107.861 148.765 131.306 132.165 136.418 106.874C141.53 81.584 126.373 57.1808 100.655 51.9827C74.9378 46.7845 49.9458 63.0724 44.8338 88.363C39.7221 113.653 56.4262 138.369 82.1437 143.567ZM48.3474 119.521L40.3246 134.53C39.7212 135.659 40.6476 136.998 41.9173 136.831L60.6212 134.367L48.3474 119.521Z" fill="white"/>
<path d="M103.278 47.4952L103.254 47.4902C76.6766 42.1183 50.4759 60.4494 44.8338 88.3621C42.5959 99.4335 43.9203 110.382 48.0143 119.882L39.719 134.758C39.0914 135.884 40.0094 137.245 41.2879 137.085L57.9913 134.997C64.5419 141.839 73.0152 146.739 82.8182 148.72C109.396 154.092 135.598 135.754 141.239 107.848C146.879 79.9416 129.856 52.867 103.278 47.4952ZM116.88 124.635C115.02 127.848 109.827 129.775 105.977 129.866C103.344 129.92 99.9636 129.704 89.8636 122.645C76.9434 113.62 70.8763 96.6617 70.3635 95.5374C69.8807 94.4191 66.257 86.3774 67.7251 79.1143C69.193 71.8515 73.4207 69.025 75.1433 67.7927C76.5583 66.7817 78.5952 66.6008 80.439 66.9732C81.0358 67.0937 81.5655 67.234 82.0424 67.3567C83.4455 67.7062 84.1385 67.9384 84.5981 70.4742C85.1663 73.6512 86.5303 81.4865 86.7168 82.3013C86.9094 83.117 87.0481 84.1989 86.368 85.0819C85.7114 86.003 85.2229 86.3717 84.338 87.0883C83.4534 87.8053 82.6455 88.3268 81.7477 89.1067C80.9345 89.7786 80.3336 91.8829 80.8527 93.5354C81.378 95.1561 82.9208 99.1885 86.3028 103.928C90.6667 110.045 94.7041 112.534 96.1267 113.533C97.1871 114.274 98.5974 114.434 99.6387 113.657C100.964 112.654 102.705 110.898 104.463 109.179C105.716 107.945 106.969 108.013 108.144 108.778C109.35 109.515 115.514 114.482 116.781 115.508C118.046 116.541 118.908 117.084 119.125 117.78C119.336 118.474 118.741 121.416 116.88 124.635Z" fill="#506FFF"/>
<path fill-rule="evenodd" clip-rule="evenodd" d="M137.167 74.3446C132.83 86.3155 120.272 93.6314 107.416 91.0327C93.2638 88.1725 84.1101 74.3808 86.9706 60.229C88.0666 54.8071 90.7666 50.1192 94.4768 46.5591C97.3798 46.5924 100.315 46.8966 103.254 47.4909L103.278 47.4956C118.569 50.5864 130.698 60.861 137.167 74.3446Z" fill="#3146CC"/>
<path d="M116.396 84.9376C130.295 84.9376 141.562 73.6701 141.562 59.7709C141.562 45.8717 130.295 34.6042 116.396 34.6042C102.497 34.6042 91.229 45.8717 91.229 59.7709C91.229 73.6701 102.497 84.9376 116.396 84.9376Z" fill="#FF2138"/>
<path d="M119.541 87.6113C133.18 87.6113 144.236 76.555 144.236 62.9165C144.236 49.2779 133.18 38.2217 119.541 38.2217C105.903 38.2217 94.8467 49.2779 94.8467 62.9165C94.8467 76.555 105.903 87.6113 119.541 87.6113Z" stroke="white" stroke-width="0.3"/>
<path d="M114.921 61.8469L114.851 51.8721C114.842 49.9289 114.863 48.5353 114.914 47.6919C114.983 46.5443 115.334 45.6704 115.969 45.0699C116.618 44.4568 117.434 44.1796 118.419 44.2384C119.611 44.3102 120.383 44.7726 120.735 45.6264C121.089 46.4663 121.219 47.6608 121.126 49.2092C121.071 50.1218 120.967 51.0454 120.814 51.98L119.306 62.1514C119.136 63.3626 118.872 64.2834 118.515 64.9141C118.157 65.5449 117.61 65.8384 116.876 65.7943C116.127 65.7493 115.626 65.4071 115.372 64.7675C115.119 64.1138 114.969 63.1405 114.921 61.8469ZM116.411 75.6329C115.565 75.5823 114.84 75.2683 114.234 74.6907C113.643 74.1003 113.377 73.3141 113.436 72.3323C113.488 71.4751 113.829 70.7669 114.461 70.2082C115.108 69.6363 115.868 69.3765 116.741 69.429C117.615 69.4812 118.338 69.8301 118.912 70.475C119.5 71.107 119.768 71.8516 119.717 72.7089C119.659 73.6768 119.301 74.4186 118.644 74.9342C117.987 75.4498 117.243 75.6829 116.411 75.6329Z" fill="white"/>
</g>
</svg>
