<svg width="73" height="73" viewBox="0 0 73 73" fill="none" xmlns="http://www.w3.org/2000/svg">
<g clip-path="url(#clip0)">
<path d="M71.5804 58.0467L63.4877 52.6511L56.2934 47.8558C54.905 46.932 53.0391 47.2349 52.0141 48.5506L47.5624 54.2734C46.6062 55.5153 44.886 55.8722 43.5147 55.1129C40.4941 53.4327 36.9221 51.8506 29.0408 43.9592C21.1594 36.0677 19.5673 32.5059 17.887 29.4852C17.1278 28.1139 17.4847 26.3938 18.7265 25.4376L24.4494 20.986C25.7649 19.9611 26.0679 18.0952 25.1441 16.7067L20.4962 9.73398L14.9532 1.41949C14.0098 0.00428025 12.1212 -0.420598 10.6627 0.454109L4.2701 4.28913C2.5425 5.30698 1.27257 6.9506 0.723363 8.87924C-1.02477 15.2528 -1.37722 29.3127 21.1556 51.8455C43.6883 74.3783 57.747 74.0247 64.1206 72.2764C66.0492 71.7274 67.6928 70.4574 68.7107 68.7297L72.5457 62.3373C73.4205 60.8786 72.9957 58.9902 71.5804 58.0467Z" fill="#33B6E4"/>
<path d="M41.5339 11.3277C53.3452 11.3409 62.9171 20.9126 62.9302 32.724C62.9302 33.4191 63.4937 33.9827 64.1889 33.9827C64.8839 33.9827 65.4475 33.4192 65.4475 32.724C65.433 19.523 54.7351 8.82509 41.5341 8.81055C40.839 8.81055 40.2754 9.37401 40.2754 10.0692C40.2752 10.7641 40.8387 11.3277 41.5339 11.3277Z" fill="#33B6E4"/>
<path d="M41.5341 18.8787C49.1766 18.8876 55.3697 25.0809 55.3787 32.7233C55.3787 33.4183 55.9421 33.9819 56.6373 33.9819C57.3324 33.9819 57.896 33.4185 57.896 32.7233C57.8856 23.6912 50.5663 16.3717 41.5341 16.3613C40.839 16.3613 40.2754 16.9248 40.2754 17.62C40.2754 18.3152 40.8389 18.8787 41.5341 18.8787Z" fill="#33B6E4"/>
<path d="M41.5339 26.4313C45.0078 26.4354 47.8228 29.2504 47.827 32.7243C47.827 33.4194 48.3904 33.983 49.0856 33.983C49.7807 33.983 50.3443 33.4195 50.3443 32.7243C50.3387 27.8609 46.3975 23.9196 41.5341 23.9141C40.839 23.9141 40.2754 24.4775 40.2754 25.1727C40.2752 25.8678 40.8387 26.4313 41.5339 26.4313Z" fill="#33B6E4"/>
</g>
<defs>
<clipPath id="clip0">
<rect width="73" height="73" fill="white"/>
</clipPath>
</defs>
</svg>
