<svg width="73" height="73" viewBox="0 0 73 73" fill="none" xmlns="http://www.w3.org/2000/svg">
<path d="M73 49.4033C73 38.7629 65.8304 29.4663 55.7202 26.6649C55.0847 11.854 42.8386 0 27.874 0C12.504 0 0 12.504 0 27.874C0 32.8832 1.33333 37.7604 3.8652 42.0422L0.102478 55.645L13.7059 51.8828C17.6418 54.2103 22.0818 55.5214 26.6643 55.7191C29.4652 65.8299 38.7623 73 49.4033 73C53.6506 73 57.7809 71.8688 61.41 69.7196L72.897 72.897L69.7196 61.41C71.8688 57.7809 73 53.6506 73 49.4033V49.4033ZM14.3809 47.258L6.23724 49.5108L8.49008 41.3671L7.97658 40.564C5.55665 36.7779 4.27734 32.3897 4.27734 27.874C4.27734 14.8627 14.8627 4.27734 27.874 4.27734C40.8854 4.27734 51.4707 14.8627 51.4707 27.874C51.4707 40.8854 40.8854 51.4707 27.874 51.4707C23.3583 51.4707 18.9707 50.1914 15.184 47.7715L14.3809 47.258ZM66.7628 66.7628L60.7199 65.0908L59.9129 65.616C56.7845 67.6483 53.1499 68.7227 49.4033 68.7227C41.0402 68.7227 33.6913 63.3153 31.0876 55.5615C43.894 54.085 54.085 43.894 55.562 31.087C63.3153 33.6913 68.7227 41.0402 68.7227 49.4033C68.7227 53.1499 67.6483 56.7845 65.616 59.9129L65.0908 60.7199L66.7628 66.7628Z" fill="#33B6E4"/>
<path d="M25.7344 38.6387H30.0117V42.916H25.7344V38.6387Z" fill="#00A5DF"/>
<path d="M32.1523 21.3867C32.1523 22.6014 31.6578 23.7225 30.76 24.544L25.7363 29.1422V34.3613H30.0137V31.0258L33.6477 27.6997C35.4155 26.0818 36.4297 23.781 36.4297 21.3867C36.4297 16.6694 32.5923 12.832 27.875 12.832C23.1577 12.832 19.3203 16.6694 19.3203 21.3867H23.5977C23.5977 19.0281 25.5163 17.1094 27.875 17.1094C30.2337 17.1094 32.1523 19.0281 32.1523 21.3867Z" fill="#00A5DF"/>
</svg>
