<svg width="100" height="100" viewBox="0 0 100 100" fill="none" xmlns="http://www.w3.org/2000/svg">
<rect width="100" height="100" rx="20" fill="#F6FDFF"/>
<path d="M27 80.6562V66.2812L32.75 61.9688V57.6562H45.6875V61.9688L51.4375 66.2812V80.6562H27Z" fill="#36BEEC"/>
<path d="M45.6875 53.3438H32.75L29.875 51.9062V44.7188H48.5625V51.9062L45.6875 53.3438Z" fill="#36BEEC"/>
<path d="M54.3125 72.0312L55.75 69.1562V37.5312L57.1875 34.6562V31.7812L58.625 30.3438H62.9375H67.25L68.6875 31.7812V34.6562L70.125 37.5312V69.1562L73 72.0312H63.6562H54.3125Z" fill="#36BEEC"/>
<path d="M62.9375 30.3438H67.25L68.6875 31.7812V34.6562L70.125 37.5312V69.1562L73 72.0312H63.6562M62.9375 30.3438H58.625L57.1875 31.7812V34.6562L55.75 37.5312V69.1562L54.3125 72.0312H63.6562M62.9375 30.3438V18.8438M63.6562 72.0312V76.3438V79.2188M63.6562 79.2188H54.3125M63.6562 79.2188H73" stroke="#36BEEC"/>
<path d="M70.6281 44.7188H61.5" stroke="#A2E0F4"/>
<path d="M70.625 53.3438H61.5" stroke="#A2E0F4"/>
<path d="M70.625 61.9688H61.5" stroke="#A2E0F4"/>
</svg>
