<svg width="176" height="52" viewBox="0 0 176 52" fill="none" xmlns="http://www.w3.org/2000/svg">
<path d="M63.99 36C63.93 36 63.9 35.96 63.9 35.88L63.93 27.36L59.91 15.24C59.89 15.16 59.92 15.12 60 15.12H63.33C63.43 15.12 63.49 15.16 63.51 15.24L65.73 23.31L67.98 15.24C68 15.16 68.05 15.12 68.13 15.12H71.49C71.57 15.12 71.6 15.16 71.58 15.24L67.53 27.24L67.56 35.88C67.56 35.96 67.52 36 67.44 36H63.99ZM78.761 36.3C77.701 36.3 76.721 36.03 75.821 35.49C74.921 34.93 74.201 34.19 73.661 33.27C73.141 32.35 72.881 31.34 72.881 30.24L72.941 15.24C72.941 15.16 72.981 15.12 73.061 15.12H76.421C76.501 15.12 76.541 15.16 76.541 15.24V30.24C76.541 30.92 76.751 31.5 77.171 31.98C77.611 32.44 78.141 32.67 78.761 32.67C79.401 32.67 79.931 32.44 80.351 31.98C80.791 31.5 81.011 30.92 81.011 30.24V15.24C81.011 15.16 81.051 15.12 81.131 15.12H84.491C84.571 15.12 84.611 15.16 84.611 15.24L84.671 30.24C84.671 31.36 84.401 32.38 83.861 33.3C83.341 34.22 82.631 34.95 81.731 35.49C80.851 36.03 79.861 36.3 78.761 36.3ZM87.1598 36C87.0798 36 87.0398 35.95 87.0398 35.85L87.0998 15.27C87.0998 15.17 87.1398 15.12 87.2198 15.12H90.5798C90.6598 15.12 90.6998 15.17 90.6998 15.27V22.38L95.4098 15.24C95.4698 15.16 95.5398 15.12 95.6198 15.12H99.0698C99.1498 15.12 99.1698 15.16 99.1298 15.24L93.9398 23.52L99.7598 35.88C99.7998 35.96 99.7498 36 99.6098 36H95.9498C95.8498 36 95.7898 35.96 95.7698 35.88L91.7198 27.06L90.6698 28.71V35.85C90.6698 35.95 90.6298 36 90.5498 36H87.1598ZM108.915 36C108.835 36 108.785 35.95 108.765 35.85L104.625 15.24C104.605 15.16 104.645 15.12 104.745 15.12H108.135C108.215 15.12 108.265 15.16 108.285 15.24L110.745 28.98L113.145 15.24C113.165 15.16 113.215 15.12 113.295 15.12H116.655C116.755 15.12 116.795 15.16 116.775 15.24L112.695 35.85C112.675 35.95 112.625 36 112.545 36H108.915ZM116.254 35.85L119.974 15.24C119.994 15.16 120.044 15.12 120.124 15.12H124.474C124.554 15.12 124.604 15.16 124.624 15.24L128.194 35.85C128.214 35.95 128.174 36 128.074 36H124.744C124.664 36 124.614 35.95 124.594 35.85L124.264 33.66H120.184L119.854 35.85C119.834 35.95 119.784 36 119.704 36H116.374C116.294 36 116.254 35.95 116.254 35.85ZM120.784 30.45H123.664L122.434 22.02L122.254 20.91L122.134 22.02L120.784 30.45ZM130.197 36C130.117 36 130.077 35.95 130.077 35.85L130.137 15.27C130.137 15.17 130.177 15.12 130.257 15.12H133.617C133.697 15.12 133.737 15.17 133.737 15.27V22.38L138.447 15.24C138.507 15.16 138.577 15.12 138.657 15.12H142.107C142.187 15.12 142.207 15.16 142.167 15.24L136.977 23.52L142.797 35.88C142.837 35.96 142.787 36 142.647 36H138.987C138.887 36 138.827 35.96 138.807 35.88L134.757 27.06L133.707 28.71V35.85C133.707 35.95 133.667 36 133.587 36H130.197ZM148.097 36.3C147.017 36.3 146.027 36.03 145.127 35.49C144.247 34.93 143.537 34.2 142.997 33.3C142.477 32.38 142.217 31.37 142.217 30.27V28.89C142.217 28.79 142.267 28.74 142.367 28.74H145.727C145.807 28.74 145.847 28.79 145.847 28.89V30.27C145.847 30.93 146.067 31.5 146.507 31.98C146.947 32.44 147.477 32.67 148.097 32.67C148.717 32.67 149.247 32.43 149.687 31.95C150.127 31.47 150.347 30.91 150.347 30.27C150.347 29.53 149.867 28.89 148.907 28.35C148.587 28.17 148.087 27.89 147.407 27.51C146.727 27.13 146.087 26.77 145.487 26.43C144.387 25.79 143.567 24.99 143.027 24.03C142.507 23.05 142.247 21.95 142.247 20.73C142.247 19.61 142.517 18.61 143.057 17.73C143.597 16.83 144.307 16.12 145.187 15.6C146.087 15.08 147.057 14.82 148.097 14.82C149.157 14.82 150.127 15.09 151.007 15.63C151.907 16.15 152.617 16.86 153.137 17.76C153.677 18.64 153.947 19.63 153.947 20.73V23.19C153.947 23.27 153.907 23.31 153.827 23.31H150.467C150.387 23.31 150.347 23.27 150.347 23.19L150.317 20.73C150.317 20.03 150.097 19.46 149.657 19.02C149.217 18.58 148.697 18.36 148.097 18.36C147.477 18.36 146.947 18.6 146.507 19.08C146.067 19.54 145.847 20.09 145.847 20.73C145.847 21.39 145.987 21.94 146.267 22.38C146.547 22.82 147.057 23.24 147.797 23.64C147.897 23.7 148.087 23.81 148.367 23.97C148.667 24.11 148.987 24.28 149.327 24.48C149.667 24.66 149.967 24.82 150.227 24.96C150.507 25.1 150.677 25.19 150.737 25.23C151.737 25.79 152.527 26.48 153.107 27.3C153.687 28.1 153.977 29.09 153.977 30.27C153.977 31.41 153.707 32.44 153.167 33.36C152.647 34.26 151.937 34.98 151.037 35.52C150.157 36.04 149.177 36.3 148.097 36.3ZM156.213 36C156.113 36 156.063 35.95 156.063 35.85L156.093 15.24C156.093 15.16 156.133 15.12 156.213 15.12H159.573C159.653 15.12 159.693 15.16 159.693 15.24L159.723 35.85C159.723 35.95 159.683 36 159.603 36H156.213ZM162.632 36C162.472 36 162.392 35.93 162.392 35.79L162.362 15.36C162.362 15.2 162.442 15.12 162.602 15.12H165.302L170.372 26.94L170.222 15.36C170.222 15.2 170.312 15.12 170.492 15.12H173.462C173.582 15.12 173.642 15.2 173.642 15.36L173.672 35.82C173.672 35.94 173.622 36 173.522 36H170.882L165.692 24.96L165.902 35.76C165.902 35.92 165.812 36 165.632 36H162.632Z" fill="#36BEEC"/>
<path d="M20.2128 49.6661L1.06383 14.7944L1.0276 14.3265C0.584428 8.6037 6.65538 4.66288 11.7021 7.39741C14.8936 10.9198 21.7021 18.1759 23.4043 19.0213C25.1064 19.8667 26.2411 19.3735 26.5957 19.0213L37.234 7.39741C42.9026 4.11268 50 8.24294 50 14.7944C43.9716 24.6571 31.2766 45.4393 28.7234 49.6661C26.1702 53.893 21.9858 51.4273 20.2128 49.6661Z" fill="#2A9DEC"/>
</svg>
